<svg class="diagram-root" style="background: #f5f6f6" xmlns="http://www.w3.org/2000/svg" xmlns:xlink="http://www.w3.org/1999/xlink"><style>.diagram-root { font-family: "Helvetica Neue", sans-serif; font-size: 12px; } .t { overflow: visible; } .t-bg { y: 40; fill: #fff;   } .th { fill: #005aa0;   } .tht { fill: #fff; font-size: 14px;  } .tf { fill: #323c46; overflow: visible; } .tf.pk { fill: #005aa0; font-weight: bold; } .tf.fk { font-weight: bold; } .ty { fill: #adb1b5; font-weight: normal; text-anchor: end; } .r { fill: transparent; stroke: #c3c3c3; stroke-width: 1; } .l { stroke: 1; } .i { fill: #c2c7ce; stroke: #c2c7ce; } .i.ix { fill: #afb3b6; stroke: #000; } .fa { fill: transparent; overflow: visible; } .fa .bg.hover { fill: #f7f7f7; } .c { cy: 12; r: 4; stroke: #d2d2dc; fill: #d2d2dc; } .hr { fill: transparent; stroke: #323c46; stroke-opacity: 0.035; stroke-width: 13; } .dc { stroke: #fa5a3c; fill: #fa5a3c; } .x { stroke: white; stroke-width: 1; } .hl .th { fill: #1b9bff; } .hl .tht {  } .fhl .bg { fill: #e7f4ff; } .fhls .bg {  } .r.hl { stroke: #1b9bff; } .dim { opacity: 0.25; }</style><g class="drawing-wrapper" transform="translate(66, 135.33333333333343) scale(1,1)"><g class="rs"><path d="M -16.22 253.11 m -1, 0 a 1,1 0 1,0 2,0 a 1,1 0 1,0 -2,0 M -16.22 253.11 m -0.5, 0 a 0.5,0.5 0 1,0 1,0 a 0.5,0.5 0 1,0 -1,0  M-16.22 253.11 L-16.22 253.11 -28.22 253.11 M -16.22 259.11 m -1, 0 a 1,1 0 1,0 2,0 a 1,1 0 1,0 -2,0 M -16.22 259.11 m -0.5, 0 a 0.5,0.5 0 1,0 1,0 a 0.5,0.5 0 1,0 -1,0  M-16.22 259.11 L-16.22 259.11 -23.22 253.11 -16.22 247.11 M -16.22 247.11 m -1, 0 a 1,1 0 1,0 2,0 a 1,1 0 1,0 -2,0 M -16.22 247.11 m -0.5, 0 a 0.5,0.5 0 1,0 1,0 a 0.5,0.5 0 1,0 -1,0  M-28.22 253.11 C -122.668 253.11, -106 -35, -56 -35 M -44 -35 m -1, 0 a 1,1 0 1,0 2,0 a 1,1 0 1,0 -2,0 M -44 -35 m -0.5, 0 a 0.5,0.5 0 1,0 1,0 a 0.5,0.5 0 1,0 -1,0  M-44 -35 L-44 -35 -56 -35 M-50 -29 L-50 -29 -50 -41" id="h813808962" class="r"></path><path d="M 433.22222222222285 341.88888888888897 m -1, 0 a 1,1 0 1,0 2,0 a 1,1 0 1,0 -2,0 M 433.22222222222285 341.88888888888897 m -0.5, 0 a 0.5,0.5 0 1,0 1,0 a 0.5,0.5 0 1,0 -1,0  M433.22222222222285 341.88888888888897 L433.22222222222285 341.88888888888897 421.22222222222285 341.88888888888897 M 433.22222222222285 347.88888888888897 m -1, 0 a 1,1 0 1,0 2,0 a 1,1 0 1,0 -2,0 M 433.22222222222285 347.88888888888897 m -0.5, 0 a 0.5,0.5 0 1,0 1,0 a 0.5,0.5 0 1,0 -1,0  M433.22222222222285 347.88888888888897 L433.22222222222285 347.88888888888897 426.22222222222285 341.88888888888897 433.22222222222285 335.88888888888897 M 433.22222222222285 335.88888888888897 m -1, 0 a 1,1 0 1,0 2,0 a 1,1 0 1,0 -2,0 M 433.22222222222285 335.88888888888897 m -0.5, 0 a 0.5,0.5 0 1,0 1,0 a 0.5,0.5 0 1,0 -1,0  M421.22222222222285 341.88888888888897 C 74.33333333333286 341.88888888888897, 185.66666666666663 -48.33333333333343, 235.66666666666663 -48.33333333333343 M 247.66666666666663 -48.33333333333343 m -1, 0 a 1,1 0 1,0 2,0 a 1,1 0 1,0 -2,0 M 247.66666666666663 -48.33333333333343 m -0.5, 0 a 0.5,0.5 0 1,0 1,0 a 0.5,0.5 0 1,0 -1,0  M247.66666666666663 -48.33333333333343 L247.66666666666663 -48.33333333333343 235.66666666666663 -48.33333333333343 M241.66666666666663 -42.33333333333343 L241.66666666666663 -42.33333333333343 241.66666666666663 -54.33333333333343" id="h2726736779" class="r"></path><path d="M 250.00000000000017 175.88888888888889 m -1, 0 a 1,1 0 1,0 2,0 a 1,1 0 1,0 -2,0 M 250.00000000000017 175.88888888888889 m -0.5, 0 a 0.5,0.5 0 1,0 1,0 a 0.5,0.5 0 1,0 -1,0  M250.00000000000017 175.88888888888889 L250.00000000000017 175.88888888888889 238.00000000000017 175.88888888888889 M 250.00000000000017 181.88888888888889 m -1, 0 a 1,1 0 1,0 2,0 a 1,1 0 1,0 -2,0 M 250.00000000000017 181.88888888888889 m -0.5, 0 a 0.5,0.5 0 1,0 1,0 a 0.5,0.5 0 1,0 -1,0  M250.00000000000017 181.88888888888889 L250.00000000000017 181.88888888888889 243.00000000000017 175.88888888888889 250.00000000000017 169.88888888888889 M 250.00000000000017 169.88888888888889 m -1, 0 a 1,1 0 1,0 2,0 a 1,1 0 1,0 -2,0 M 250.00000000000017 169.88888888888889 m -0.5, 0 a 0.5,0.5 0 1,0 1,0 a 0.5,0.5 0 1,0 -1,0  M238.00000000000017 175.88888888888889 Q 219.57 175.88888888888889, 201.13 202 T 164.25 228.11 M 152.25 228.11 m -1, 0 a 1,1 0 1,0 2,0 a 1,1 0 1,0 -2,0 M 152.25 228.11 m -0.5, 0 a 0.5,0.5 0 1,0 1,0 a 0.5,0.5 0 1,0 -1,0  M152.25 228.11 L152.25 228.11 164.25 228.11 M158.25 234.11 L158.25 234.11 158.25 222.11" id="h3137675399" class="r"></path><path d="M 250.00000000000017 200.88888888888889 m -1, 0 a 1,1 0 1,0 2,0 a 1,1 0 1,0 -2,0 M 250.00000000000017 200.88888888888889 m -0.5, 0 a 0.5,0.5 0 1,0 1,0 a 0.5,0.5 0 1,0 -1,0  M250.00000000000017 200.88888888888889 L250.00000000000017 200.88888888888889 238.00000000000017 200.88888888888889 M 250.00000000000017 206.88888888888889 m -1, 0 a 1,1 0 1,0 2,0 a 1,1 0 1,0 -2,0 M 250.00000000000017 206.88888888888889 m -0.5, 0 a 0.5,0.5 0 1,0 1,0 a 0.5,0.5 0 1,0 -1,0  M250.00000000000017 206.88888888888889 L250.00000000000017 206.88888888888889 243.00000000000017 200.88888888888889 250.00000000000017 194.88888888888889 M 250.00000000000017 194.88888888888889 m -1, 0 a 1,1 0 1,0 2,0 a 1,1 0 1,0 -2,0 M 250.00000000000017 194.88888888888889 m -0.5, 0 a 0.5,0.5 0 1,0 1,0 a 0.5,0.5 0 1,0 -1,0  M238.00000000000017 200.88888888888889 C 188.00000000000017 200.88888888888889, 78.06666666666655 291.88888888888897, 421.22222222222285 291.88888888888897 M 433.22222222222285 291.88888888888897 m -1, 0 a 1,1 0 1,0 2,0 a 1,1 0 1,0 -2,0 M 433.22222222222285 291.88888888888897 m -0.5, 0 a 0.5,0.5 0 1,0 1,0 a 0.5,0.5 0 1,0 -1,0  M433.22222222222285 291.88888888888897 L433.22222222222285 291.88888888888897 421.22222222222285 291.88888888888897 M427.22222222222285 297.88888888888897 L427.22222222222285 297.88888888888897 427.22222222222285 285.88888888888897" id="h2296224473" class="r"></path></g><g class="hrs"></g><g class="ts"><svg width="155.15" height="100" x="-44" y="-92" id="h99212310" class="t"><rect height="40" width="155.15" class="th"></rect><text x="13" y="25" class="tht">card_holder</text><rect height="60" width="155.15" class="t-bg" y="40"></rect><text x="13" y="61" class="tf pk">id<tspan x="142.15" class="ty">INT</tspan></text><path d="M7,14A2,2 0 0,1 5,12A2,2 0 0,1 7,10A2,2 0 0,1 9,12A2,2 0 0,1 7,14M12.65,10C11.83,7.67 9.61,6 7, 6A6, 6 0 0, 0 1, 12A6, 6 0 0, 0 7, 18C9.61, 18 11.83, 16.33 12.65, 14H17V18H21V14H23V10H12.65Z" class="i pk" transform="translate(102.819921875, 48) scale(0.65)"></path><text x="13" y="86" class="tf">name<tspan x="142.15" class="ty">VARCHAR(20)</tspan></text></svg><svg width="168.47" height="100" x="-16.22" y="171.11" id="h198306241" class="t"><rect height="40" width="168.47" class="th"></rect><text x="13" y="25" class="tht">credit_card</text><rect height="60" width="168.47" class="t-bg" y="40"></rect><text x="13" y="61" class="tf pk">card<tspan x="155.47" class="ty">VARCHAR(20)</tspan></text><path d="M7,14A2,2 0 0,1 5,12A2,2 0 0,1 7,10A2,2 0 0,1 9,12A2,2 0 0,1 7,14M12.65,10C11.83,7.67 9.61,6 7, 6A6, 6 0 0, 0 1, 12A6, 6 0 0, 0 7, 18C9.61, 18 11.83, 16.33 12.65, 14H17V18H21V14H23V10H12.65Z" class="i pk" transform="translate(56.339140625, 48) scale(0.65)"></path><text x="13" y="86" class="tf fk">id_card_holder<tspan x="155.47" class="ty">INT</tspan></text></svg><svg width="161.82" height="100" x="247.66666666666663" y="-105.33333333333343" id="h1670232039" class="t"><rect height="40" width="161.82" class="th"></rect><text x="13" y="25" class="tht">merchant_category</text><rect height="60" width="161.82" class="t-bg" y="40"></rect><text x="13" y="61" class="tf pk">id<tspan x="148.82" class="ty">INT</tspan></text><path d="M7,14A2,2 0 0,1 5,12A2,2 0 0,1 7,10A2,2 0 0,1 9,12A2,2 0 0,1 7,14M12.65,10C11.83,7.67 9.61,6 7, 6A6, 6 0 0, 0 1, 12A6, 6 0 0, 0 7, 18C9.61, 18 11.83, 16.33 12.65, 14H17V18H21V14H23V10H12.65Z" class="i pk" transform="translate(109.489921875, 48) scale(0.65)"></path><text x="13" y="86" class="tf">name<tspan x="148.82" class="ty">VARCHAR(100)</tspan></text></svg><svg width="148.47" height="175" x="250.00000000000017" y="43.888888888888886" id="h3007999074" class="t"><rect height="40" width="148.47" class="th"></rect><text x="13" y="25" class="tht">transaction</text><rect height="135" width="148.47" class="t-bg" y="40"></rect><text x="13" y="61" class="tf pk">id<tspan x="135.47" class="ty">INT</tspan></text><path d="M7,14A2,2 0 0,1 5,12A2,2 0 0,1 7,10A2,2 0 0,1 9,12A2,2 0 0,1 7,14M12.65,10C11.83,7.67 9.61,6 7, 6A6, 6 0 0, 0 1, 12A6, 6 0 0, 0 7, 18C9.61, 18 11.83, 16.33 12.65, 14H17V18H21V14H23V10H12.65Z" class="i pk" transform="translate(96.139921875, 48) scale(0.65)"></path><text x="13" y="86" class="tf">date<tspan x="135.47" class="ty">TIMESTAMP</tspan></text><text x="13" y="111" class="tf">amount<tspan x="135.47" class="ty">FLOAT</tspan></text><text x="13" y="136" class="tf fk">card<tspan x="135.47" class="ty">VARCHAR(20)</tspan></text><text x="13" y="161" class="tf fk">id_merchant<tspan x="135.47" class="ty">INT</tspan></text></svg><svg width="184.06" height="125" x="433.22222222222285" y="234.88888888888897" id="h1481749269" class="t"><rect height="40" width="184.06" class="th"></rect><text x="13" y="25" class="tht">merchant</text><rect height="85" width="184.06" class="t-bg" y="40"></rect><text x="13" y="61" class="tf pk">id<tspan x="171.06" class="ty">INT</tspan></text><path d="M7,14A2,2 0 0,1 5,12A2,2 0 0,1 7,10A2,2 0 0,1 9,12A2,2 0 0,1 7,14M12.65,10C11.83,7.67 9.61,6 7, 6A6, 6 0 0, 0 1, 12A6, 6 0 0, 0 7, 18C9.61, 18 11.83, 16.33 12.65, 14H17V18H21V14H23V10H12.65Z" class="i pk" transform="translate(131.729921875, 48) scale(0.65)"></path><text x="13" y="86" class="tf">name<tspan x="171.06" class="ty">VARCHAR(100)</tspan></text><text x="13" y="111" class="tf fk">id_merchant_category<tspan x="171.06" class="ty">INT</tspan></text></svg></g></g><text class="qdbd-link" x="10" y="20">www.quickdatabasediagrams.com</text></svg>